<svg width="65" height="68" viewBox="0 0 65 68" fill="none" xmlns="http://www.w3.org/2000/svg">
<g clip-path="url(#clip0_189_5708)">
<path d="M32.5 67.6234C50.4493 67.6234 65 52.6998 65 34.2905C65 15.8813 50.4493 0.957642 32.5 0.957642C14.5507 0.957642 0 15.8813 0 34.2905C0 52.6998 14.5507 67.6234 32.5 67.6234Z" fill="#34855B"/>
<path d="M52.9983 19.8224V37.0228C52.9983 38.6922 51.6665 40.0582 50.0388 40.0582H48.8353V47.7301C48.8353 48.1752 48.3075 48.3978 48.0017 48.0842L44.9188 44.9249C44.9361 44.7655 44.9435 44.6036 44.9435 44.4417V27.2413C44.9435 24.7295 42.9507 22.6883 40.5042 22.6883H21.541V19.8224C21.541 18.1529 22.8728 16.787 24.5005 16.787H50.0388C51.6665 16.787 52.9983 18.1529 52.9983 19.8224Z" fill="white" fill-opacity="0.8"/>
<path d="M40.5042 24.206H14.9634C13.3357 24.206 12.0039 25.5719 12.0039 27.2414V44.4418C12.0039 46.1113 13.3357 47.4772 14.9634 47.4772H20.335V55.1491C20.335 55.3008 20.3942 55.4248 20.4879 55.5133C20.5101 55.5336 20.5347 55.5538 20.5619 55.5715C20.5865 55.5867 20.6161 55.6018 20.6433 55.6145C20.6729 55.6246 20.7025 55.6347 20.732 55.6398C20.7641 55.6474 20.7937 55.6499 20.8258 55.6499C20.9466 55.6499 21.0699 55.6043 21.1686 55.5032L28.9941 47.4772H40.5042C42.1319 47.4772 43.4637 46.1113 43.4637 44.4418V27.2414C43.4637 25.5719 42.1319 24.206 40.5042 24.206ZM19.2938 38.1464C18.0527 38.1464 17.0466 37.1145 17.0466 35.8416C17.0466 34.5687 18.0527 33.5368 19.2938 33.5368C20.5349 33.5368 21.541 34.5687 21.541 35.8416C21.541 37.1145 20.5349 38.1464 19.2938 38.1464ZM27.7338 38.1464C26.4927 38.1464 25.4866 37.1145 25.4866 35.8416C25.4866 34.5687 26.4927 33.5368 27.7338 33.5368C28.9749 33.5368 29.981 34.5687 29.981 35.8416C29.981 37.1145 28.9749 38.1464 27.7338 38.1464ZM36.1738 38.1464C34.9327 38.1464 33.9266 37.1145 33.9266 35.8416C33.9266 34.5687 34.9327 33.5368 36.1738 33.5368C37.4149 33.5368 38.421 34.5687 38.421 35.8416C38.421 37.1145 37.4149 38.1464 36.1738 38.1464Z" fill="white"/>
</g>
<defs>
<clipPath id="clip0_189_5708">
<rect width="65" height="66.6658" fill="white" transform="translate(0 0.957642)"/>
</clipPath>
</defs>
</svg>
